<svg xmlns="http://www.w3.org/2000/svg" width="500" height="500" fill="none" viewBox="0 0 500 500">
  <g clip-path="url(#a)">
    <path fill="#707070" fill-rule="evenodd" d="M320.648 299.788a4.001 4.001 0 0 0-3.355 4.555l16.495 108.756a4.001 4.001 0 0 0 4.555 3.355l108.756-16.495a4 4 0 0 0 3.355-4.555l-16.495-108.756a4 4 0 0 0-4.555-3.355l-108.756 16.495Zm47.779 29.79a1 1 0 0 0-1.745.265l-23.558 66.717a1 1 0 0 0 1.093 1.322l37.216-5.645 28.623-4.341 25.438-3.858a1 1 0 0 0 .553-1.7l-32.528-32.147a1 1 0 0 0-1.585.241l-7.497 14.046-26.01-34.9Zm40.584-3.409c7.159-1.085 12.082-7.769 10.997-14.929-1.086-7.159-7.77-12.082-14.929-10.996-7.16 1.086-12.083 7.769-10.997 14.929 1.086 7.159 7.77 12.082 14.929 10.996Z" clip-rule="evenodd"/>
  </g>
  <rect width="20" height="250" x="240" y="125" fill="#707070" rx="10"/>
  <rect width="250" height="20" x="125" y="240" fill="#707070" rx="10"/>
  <path fill="#fff" d="M420.5 347v61.5l15-11 8 15 9-4.5-7-15 19-3-44-43Z"/>
  <path fill="#000" d="M416.125 337.105v79.883l5.176-4.297 12.597-10.546 6.348 12.597 1.367 2.832 2.832-1.465 9.668-4.98 2.735-1.367-1.368-2.832-5.761-11.328 15.82-1.954 6.348-.781-4.492-4.492-45.899-45.996-5.371-5.274Zm6.25 15.137 36.133 36.035-14.063 1.661-4.394.585 2.051 4.004 6.445 12.5-4.102 2.149-6.738-13.477-1.855-3.515-3.028 2.539-10.449 8.789v-51.27Z"/>
  <defs>
    <clipPath id="a">
      <path fill="#fff" d="m310.984 296.181 126.553-19.194L456.73 403.54l-126.552 19.194z"/>
    </clipPath>
  </defs>
</svg>
