<svg width="64" height="64" viewBox="0 0 64 64" fill="none" xmlns="http://www.w3.org/2000/svg">
<g id="Frame 10" clip-path="url(#clip0_133_26)">
<path id="Polygon 4" d="M28.7394 39.4113C30.334 41.6554 33.666 41.6554 35.2606 39.4113L55.2241 11.317C57.106 8.66851 55.2125 5 51.9634 5H12.0365C8.78755 5 6.89397 8.66851 8.77592 11.317L28.7394 39.4113Z" fill="#707070"/>
<path id="Rectangle 41" d="M25 34C25 32.8954 25.8954 32 27 32H37C38.1046 32 39 32.8954 39 34V47.1716C39 47.702 38.7893 48.2107 38.4142 48.5858L28.4142 58.5858C27.1543 59.8457 25 58.9534 25 57.1716V34Z" fill="#707070"/>
</g>
<defs>
<clipPath id="clip0_133_26">
<rect width="64" height="64" fill="white"/>
</clipPath>
</defs>
</svg>
