<svg xmlns="http://www.w3.org/2000/svg" width="64" height="64" fill="none" viewBox="0 0 64 64">
  <g clip-path="url(#a)">
    <rect width="15" height="35" x="10" y="25" fill="#707070" rx="3"/>
    <rect width="15" height="35" x="39" y="25" fill="#707070" rx="3"/>
    <path fill="#707070" d="M30.124 3.503a3 3 0 0 1 3.752 0l26.097 20.906c2.213 1.772.96 5.341-1.875 5.341H5.902c-2.834 0-4.088-3.569-1.875-5.341L30.124 3.503Z"/>
    <path stroke="#707070" d="M24.5 44c0-.667.4-2 2-2h11c.667 0 2 .4 2 2"/>
    <path fill="#707070" d="M23 28h19v14H23z"/>
  </g>
  <defs>
    <clipPath id="a">
      <path fill="#fff" d="M0 0h64v64H0z"/>
    </clipPath>
  </defs>
</svg>
