<svg width="64" height="64" viewBox="0 0 64 64" fill="none" xmlns="http://www.w3.org/2000/svg">
<path fill-rule="evenodd" clip-rule="evenodd" d="M59 32C59 46.9117 46.9117 59 32 59C17.0883 59 5 46.9117 5 32C5 17.0883 17.0883 5 32 5C46.9117 5 59 17.0883 59 32ZM19 49C19 46.7909 20.7909 45 23 45H28V31H23C20.7909 31 19 29.2091 19 27C19 24.7909 20.7909 23 23 23H32C34.2091 23 36 24.7909 36 27V31V45H41C43.2091 45 45 46.7909 45 49C45 51.2091 43.2091 53 41 53H23C20.7909 53 19 51.2091 19 49ZM31.5 19C33.9853 19 36 16.9853 36 14.5C36 12.0147 33.9853 10 31.5 10C29.0147 10 27 12.0147 27 14.5C27 16.9853 29.0147 19 31.5 19Z" fill="#707070"/>
</svg>
