<svg xmlns="http://www.w3.org/2000/svg" width="64" height="64" fill="none" viewBox="0 0 64 64">
  <path fill="#707070" stroke="#707070" d="M9 56c0-8.357 4.5-26 23-26s23 17.643 23 26h-4c0-6.5-3.5-22-19-22S13 49.5 13 56H9Z"/>
  <path fill="#707070" fill-rule="evenodd" stroke="#707070" d="M20 15c0 4 2.4 12 12 12s12-8 12-12S41.6 3 32 3s-12 8-12 12Zm12-8c-4.5 0-8 3.5-8 8s3.5 8 8 8 8-3.5 8-8-3.5-8-8-8Z" clip-rule="evenodd"/>
  <circle cx="53" cy="56.5" r="2.5" fill="#707070"/>
  <circle cx="11" cy="56.5" r="2.5" fill="#707070"/>
</svg>
