<svg width="64" height="64" viewBox="0 0 64 64" fill="none" xmlns="http://www.w3.org/2000/svg">
<g clip-path="url(#clip0_162_11)">
<path d="M23.875 42.5V41.1875C23.875 38.1797 24.112 35.7826 24.5859 33.9961C25.0599 32.2096 25.7617 30.7786 26.6914 29.7031C27.6211 28.6094 28.7604 27.625 30.1094 26.75C31.276 25.9844 32.3151 25.2461 33.2266 24.5352C34.1563 23.8242 34.8854 23.0677 35.4141 22.2656C35.9609 21.4635 36.2344 20.5521 36.2344 19.5312C36.2344 18.6198 36.0156 17.8177 35.5781 17.125C35.1406 16.4323 34.5482 15.8945 33.8008 15.5117C33.0534 15.1289 32.224 14.9375 31.3125 14.9375C30.3281 14.9375 29.4167 15.1654 28.5781 15.6211C27.7578 16.0768 27.0924 16.7057 26.582 17.5078C26.0898 18.3099 25.8438 19.2396 25.8438 20.2969H11.8438C11.8802 16.2865 12.7917 13.0326 14.5781 10.5352C16.3646 8.01953 18.7344 6.17838 21.6875 5.01172C24.6406 3.82682 27.8854 3.23437 31.4219 3.23437C35.3229 3.23437 38.8047 3.80859 41.8672 4.95703C44.9297 6.08724 47.3451 7.80078 49.1133 10.0977C50.8815 12.3763 51.7656 15.2292 51.7656 18.6563C51.7656 20.862 51.3828 22.8034 50.6172 24.4805C49.8698 26.1393 48.8216 27.6068 47.4727 28.8828C46.1419 30.1406 44.5833 31.2891 42.7969 32.3281C41.4844 33.0937 40.3815 33.8867 39.4883 34.707C38.5951 35.5091 37.9206 36.4297 37.4648 37.4687C37.0091 38.4896 36.7813 39.7292 36.7813 41.1875V42.5H23.875ZM30.5469 60.875C28.4323 60.875 26.6185 60.1367 25.1055 58.6602C23.6107 57.1654 22.8724 55.3516 22.8906 53.2187C22.8724 51.1406 23.6107 49.3633 25.1055 47.8867C26.6185 46.4102 28.4323 45.6719 30.5469 45.6719C32.5521 45.6719 34.3203 46.4102 35.8516 47.8867C37.401 49.3633 38.1849 51.1406 38.2031 53.2187C38.1849 54.6406 37.8112 55.9349 37.082 57.1016C36.3711 58.25 35.4414 59.1706 34.293 59.8633C33.1445 60.5378 31.8958 60.875 30.5469 60.875Z" fill="#707070"/>
</g>
<defs>
<clipPath id="clip0_162_11">
<rect width="64" height="64" fill="white"/>
</clipPath>
</defs>
</svg>
