<svg width="64" height="64" viewBox="0 0 64 64" fill="none" xmlns="http://www.w3.org/2000/svg">
<path fill-rule="evenodd" clip-rule="evenodd" d="M59 32C59 46.9117 46.9117 59 32 59C17.0883 59 5 46.9117 5 32C5 17.0883 17.0883 5 32 5C46.9117 5 59 17.0883 59 32ZM11.8284 38.5269C10.2663 36.9648 10.2663 34.4322 11.8284 32.8701C13.3905 31.308 15.9232 31.308 17.4853 32.8701L25.9706 41.3553L47.1838 20.1421C48.7459 18.58 51.2785 18.58 52.8406 20.1421C54.4027 21.7042 54.4027 24.2369 52.8406 25.799L31.6274 47.0122L28.799 49.8406C27.2369 51.4027 24.7042 51.4027 23.1421 49.8406L11.8284 38.5269Z" fill="#20CC20"/>
</svg>
