<svg width="64" height="64" viewBox="0 0 64 64" fill="none" xmlns="http://www.w3.org/2000/svg">
<path fill-rule="evenodd" clip-rule="evenodd" d="M6.16445 51.1074C4.73336 53.7722 6.66367 56.9999 9.68842 56.9999H54.3115C57.3362 56.9999 59.2665 53.7722 57.8355 51.1074L35.5239 9.56184C34.0149 6.75185 29.985 6.75184 28.476 9.56184L6.16445 51.1074ZM28 19C28 16.7909 29.7909 15 32 15C34.2091 15 36 16.7909 36 19V39C36 41.2091 34.2091 43 32 43C29.7909 43 28 41.2091 28 39V19ZM32 54C34.2091 54 36 52.2091 36 50C36 47.7909 34.2091 46 32 46C29.7909 46 28 47.7909 28 50C28 52.2091 29.7909 54 32 54Z" fill="#FFAA33"/>
</svg>
